<svg width="247" height="42" viewBox="0 0 247 42" fill="none" xmlns="http://www.w3.org/2000/svg">
<g id="Artwork" clip-path="url(#clip0_21_1305)">
<path id="Vector" d="M66.4674 22.0689C67.1051 22.8319 67.4256 23.7682 67.4256 24.8777C67.4256 26.3687 66.9369 27.5657 65.9577 28.4687C64.9784 29.3717 63.6523 29.8232 61.9776 29.8232H56.0566V12.1797H60.9826C62.624 12.1797 63.9186 12.5892 64.8628 13.4099C65.8088 14.2307 66.28 15.3192 66.28 16.6772C66.28 18.4657 65.4759 19.7677 63.8678 20.5779C64.9627 20.8107 65.828 21.3077 66.4674 22.0689ZM57.9223 20.1299H61.1315C62.1265 20.1299 62.9359 19.8114 63.556 19.1727C64.1779 18.5357 64.4897 17.7517 64.4897 16.8242C64.4897 15.8967 64.1709 15.1844 63.5315 14.6367C62.8921 14.0907 62.0022 13.8159 60.8583 13.8159H57.9223V20.1282V20.1299ZM64.5633 27.2612C65.2272 26.6487 65.5583 25.8279 65.5583 24.8007C65.5583 23.7734 65.2517 23.0699 64.6386 22.5397C64.0255 22.0094 63.1864 21.7452 62.1265 21.7452H57.9223V28.1817H61.8025C62.9796 28.1817 63.8993 27.8754 64.5633 27.2629V27.2612Z" fill="black"/>
<path id="Vector_2" d="M73.2713 12.1782H82.9481V13.8687H75.1369V20.1302H82.7239V21.7945H75.1369V28.1312H83.146V29.8217H73.2695V12.1782H73.2713Z" fill="black"/>
<path id="Vector_3" d="M95.1108 22.764V29.8217H93.2697V22.764L86.9756 12.1782H89.0654L94.2647 20.9247L99.4395 12.1782H101.405L95.1108 22.764Z" fill="black"/>
<path id="Vector_4" d="M108.88 28.9029C107.478 28.1242 106.38 27.0427 105.583 25.6602C104.788 24.2777 104.388 22.7237 104.388 20.9999C104.388 19.2762 104.786 17.7239 105.583 16.3397C106.378 14.9572 107.477 13.8757 108.88 13.0969C110.281 12.3182 111.852 11.9297 113.594 11.9297C115.335 11.9297 116.882 12.3199 118.283 13.0969C119.685 13.8757 120.783 14.9572 121.58 16.3397C122.375 17.7239 122.775 19.2674 122.775 20.9737C122.775 22.6799 122.377 24.2497 121.58 25.6339C120.785 27.0182 119.685 28.1032 118.283 28.8889C116.882 29.6764 115.31 30.0702 113.569 30.0702C111.828 30.0702 110.281 29.6817 108.88 28.9029ZM117.325 27.3367C118.436 26.7067 119.306 25.8369 119.937 24.7274C120.568 23.6179 120.883 22.3754 120.883 20.9999C120.883 19.6244 120.568 18.3784 119.937 17.2602C119.306 16.1419 118.436 15.2687 117.325 14.6387C116.214 14.0087 114.971 13.6937 113.594 13.6937C112.217 13.6937 110.949 14.0087 109.838 14.6387C108.727 15.2687 107.857 16.1419 107.226 17.2602C106.595 18.3784 106.28 19.6244 106.28 20.9999C106.28 22.3754 106.595 23.6179 107.226 24.7274C107.857 25.8369 108.727 26.7067 109.838 27.3367C110.949 27.9667 112.201 28.2817 113.594 28.2817C114.986 28.2817 116.214 27.9667 117.325 27.3367Z" fill="black"/>
<path id="Vector_5" d="M142.997 12.1782V29.8217H141.231L130.659 15.1357V29.8217H128.818V12.1782H130.584L141.156 26.8642V12.1782H142.997Z" fill="black"/>
<path id="Vector_6" d="M160.31 13.2594C161.669 13.9804 162.719 14.9954 163.456 16.3044C164.194 17.6134 164.563 19.1289 164.563 20.8527C164.563 22.5764 164.194 24.2127 163.456 25.5619C162.719 26.9129 161.669 27.9594 160.31 28.7049C158.951 29.4504 157.358 29.8232 155.535 29.8232H149.962V12.1797H155.535C157.358 12.1797 158.951 12.5402 160.31 13.2612V13.2594ZM159.303 27.2384C160.389 26.6417 161.223 25.8017 161.802 24.7167C162.382 23.6317 162.673 22.3524 162.673 20.8772C162.673 19.4019 162.382 18.2347 161.802 17.1742C161.223 16.1137 160.389 15.2982 159.303 14.7259C158.217 14.1537 156.936 13.8684 155.459 13.8684H151.828V28.1327H155.435C156.927 28.1327 158.217 27.8352 159.303 27.2384Z" fill="black"/>
<path id="Vector_7" d="M190.285 28.133V29.8235H178.145V28.854L187.648 13.8687H178.394V12.1782H190.185V13.1232L180.732 28.133H190.285Z" fill="black"/>
<path id="Vector_8" d="M196.255 12.1782H205.931V13.8687H198.12V20.1302H205.707V21.7945H198.12V28.1312H206.129V29.8217H196.253V12.1782H196.255Z" fill="black"/>
<path id="Vector_9" d="M222.572 29.8217L217.745 22.442H214.338V29.8217H212.473V12.1782H217.548C219.256 12.1782 220.611 12.6332 221.615 13.545C222.619 14.4567 223.12 15.6817 223.12 17.2235C223.12 18.3662 222.805 19.3725 222.174 20.2422C221.543 21.112 220.681 21.7297 219.587 22.0937L224.786 29.8217H222.572ZM220.096 19.9692C220.851 19.3812 221.228 18.4817 221.228 17.2725C221.228 16.0632 220.858 15.2267 220.121 14.6632C219.383 14.0997 218.467 13.818 217.372 13.818H214.338V20.8512H217.299C218.409 20.8512 219.343 20.5572 220.098 19.9692H220.096Z" fill="black"/>
<path id="Vector_10" d="M233.107 28.9029C231.705 28.1242 230.607 27.0427 229.81 25.6602C229.015 24.2777 228.615 22.7237 228.615 20.9999C228.615 19.2762 229.013 17.7239 229.81 16.3397C230.605 14.9572 231.704 13.8757 233.107 13.0969C234.508 12.3182 236.08 11.9297 237.821 11.9297C239.562 11.9297 241.109 12.3199 242.51 13.0969C243.912 13.8757 245.01 14.9572 245.807 16.3397C246.602 17.7239 247.002 19.2674 247.002 20.9737C247.002 22.6799 246.604 24.2497 245.807 25.6339C245.012 27.0182 243.912 28.1032 242.51 28.8889C241.109 29.6764 239.538 30.0702 237.796 30.0702C236.055 30.0702 234.508 29.6817 233.107 28.9029ZM241.552 27.3367C242.663 26.7067 243.533 25.8369 244.164 24.7274C244.795 23.6179 245.11 22.3754 245.11 20.9999C245.11 19.6244 244.795 18.3784 244.164 17.2602C243.533 16.1419 242.663 15.2687 241.552 14.6387C240.441 14.0087 239.198 13.6937 237.821 13.6937C236.444 13.6937 235.176 14.0087 234.065 14.6387C232.954 15.2687 232.084 16.1419 231.453 17.2602C230.822 18.3784 230.507 19.6244 230.507 20.9999C230.507 22.3754 230.822 23.6179 231.453 24.7274C232.084 25.8369 232.954 26.7067 234.065 27.3367C235.176 27.9667 236.428 28.2817 237.821 28.2817C239.213 28.2817 240.441 27.9667 241.552 27.3367Z" fill="black"/>
<rect id="Rectangle 1" x="0.875977" width="40.466" height="40.425" fill="url(#paint0_radial_21_1305)"/>
<path id="Vector_11" d="M28.0319 10.9726C26.0804 10.3461 23.6525 9.9751 21.0213 9.9751C18.3902 9.9751 15.9605 10.3461 14.0107 10.9726C8.82198 12.6386 5.25537 16.1001 5.25537 20.1006C5.25537 25.7268 12.3133 30.2908 21.0231 30.2908C29.7329 30.2908 36.7873 25.7286 36.7873 20.1006C36.7873 16.1001 33.2207 12.6403 28.0319 10.9726ZM21.0213 25.9088C19.7215 25.9088 18.6599 23.3573 18.5986 20.1496C19.3799 20.2196 20.191 20.2581 21.0213 20.2581C21.8517 20.2581 22.661 20.2196 23.444 20.1496C23.381 23.3573 22.3211 25.9088 21.0213 25.9088ZM18.7615 17.6383C19.1154 15.3878 19.993 13.7918 21.0213 13.7918C22.0496 13.7918 22.9255 15.3861 23.2794 17.6383C22.5576 17.7031 21.8009 17.7398 21.0213 17.7398C20.2418 17.7398 19.485 17.7031 18.7615 17.6383ZM24.6598 17.4686C24.1325 13.9353 22.703 11.4013 21.0213 11.4013C19.3396 11.4013 17.9084 13.9336 17.3811 17.4686C14.1789 16.9698 11.9401 15.8323 11.9401 14.5076C11.9401 12.7226 16.006 11.2771 21.0213 11.2771C26.0367 11.2771 30.1008 12.7243 30.1008 14.5076C30.1008 15.8323 27.862 16.9681 24.6598 17.4686ZM7.55545 19.7278C7.55545 18.0023 8.21937 16.3871 9.37905 14.9958C9.36503 15.0921 9.35802 15.1901 9.35802 15.2881C9.35802 17.4581 12.6216 19.3026 17.1692 19.9798C17.1657 20.1443 17.1622 20.3088 17.1622 20.4733C17.1622 24.5088 18.2833 27.9248 19.8319 29.1043C12.9509 28.6843 7.5537 24.6471 7.5537 19.7278M22.2073 29.1043C23.7558 27.9266 24.8752 24.5088 24.8752 20.4733C24.8752 20.3071 24.8735 20.1426 24.87 19.9798C29.4176 19.3026 32.6811 17.4563 32.6811 15.2881C32.6811 15.1901 32.6741 15.0938 32.6601 14.9958C33.8198 16.3871 34.4837 18.0023 34.4837 19.7278C34.4837 24.6471 29.0865 28.6843 22.2073 29.1043Z" fill="white"/>
</g>
<defs>
<radialGradient id="paint0_radial_21_1305" cx="0" cy="0" r="1" gradientUnits="userSpaceOnUse" gradientTransform="translate(21.1089 82.6467) rotate(-90) scale(82.6467 55.8058)">
<stop offset="0.561273" stop-color="#00C7FD"/>
<stop offset="0.855482" stop-color="#0046D2"/>
<stop offset="0.982218" stop-color="#001E5A"/>
</radialGradient>
<clipPath id="clip0_21_1305">
<rect width="247" height="42" fill="white"/>
</clipPath>
</defs>
</svg>
